<mxfile host="65bd71144e">
    <diagram id="zpV_XuP0ZcOjdMWnb4KM" name="总体流程">
        <mxGraphModel dx="657" dy="333" grid="1" gridSize="10" guides="1" tooltips="1" connect="1" arrows="1" fold="1" page="1" pageScale="1" pageWidth="827" pageHeight="1169" math="0" shadow="0">
            <root>
                <mxCell id="0"/>
                <mxCell id="1" parent="0"/>
                <mxCell id="6" style="edgeStyle=none;html=1;" parent="1" source="2" target="5" edge="1">
                    <mxGeometry relative="1" as="geometry"/>
                </mxCell>
                <mxCell id="2" value="txt数据文件路径&lt;br&gt;input_path:str" style="rounded=0;whiteSpace=wrap;html=1;fillColor=#d5e8d4;strokeColor=#82b366;" parent="1" vertex="1">
                    <mxGeometry x="880" y="170" width="100" height="60" as="geometry"/>
                </mxCell>
                <mxCell id="-oTKJ_Lwxb_Tc46xKrAl-40" style="edgeStyle=none;html=1;" parent="1" source="3" target="-oTKJ_Lwxb_Tc46xKrAl-38" edge="1">
                    <mxGeometry relative="1" as="geometry"/>
                </mxCell>
                <mxCell id="3" value="词表大小&lt;div&gt;vocab_size:int&lt;/div&gt;" style="rounded=0;whiteSpace=wrap;html=1;fillColor=#d5e8d4;strokeColor=#82b366;" parent="1" vertex="1">
                    <mxGeometry x="1108.25" y="1380" width="90" height="60" as="geometry"/>
                </mxCell>
                <mxCell id="-oTKJ_Lwxb_Tc46xKrAl-37" style="edgeStyle=none;html=1;" parent="1" source="4" target="33" edge="1">
                    <mxGeometry relative="1" as="geometry"/>
                </mxCell>
                <mxCell id="764HmG8UyfAL9-z-iron-37" style="html=1;rounded=0;elbow=vertical;" parent="1" source="4" target="-oTKJ_Lwxb_Tc46xKrAl-38" edge="1">
                    <mxGeometry relative="1" as="geometry">
                        <mxPoint x="910" y="940" as="targetPoint"/>
                        <Array as="points">
                            <mxPoint x="800" y="1360"/>
                        </Array>
                    </mxGeometry>
                </mxCell>
                <mxCell id="4" value="特殊词元列表&lt;div&gt;special_tokens:list[str]&lt;/div&gt;" style="rounded=0;whiteSpace=wrap;html=1;fillColor=#d5e8d4;strokeColor=#82b366;" parent="1" vertex="1">
                    <mxGeometry x="730" y="580" width="136.5" height="60" as="geometry"/>
                </mxCell>
                <mxCell id="8" style="edgeStyle=none;html=1;" parent="1" source="5" target="25" edge="1">
                    <mxGeometry relative="1" as="geometry"/>
                </mxCell>
                <mxCell id="5" value="读取成若干个bytes&lt;div&gt;&lt;span style=&quot;color: rgb(121, 94, 38); background-color: rgb(255, 255, 255); font-family: Consolas, &amp;quot;Courier New&amp;quot;, monospace; font-size: 14px; white-space: pre;&quot;&gt;path_to_chunks_bytes&lt;/span&gt;&lt;/div&gt;" style="shape=parallelogram;perimeter=parallelogramPerimeter;whiteSpace=wrap;html=1;fixedSize=1;fillColor=#dae8fc;strokeColor=#6c8ebf;" parent="1" vertex="1">
                    <mxGeometry x="940" y="260" width="140" height="60" as="geometry"/>
                </mxCell>
                <mxCell id="45" style="edgeStyle=none;html=1;" parent="1" source="25" target="43" edge="1">
                    <mxGeometry relative="1" as="geometry"/>
                </mxCell>
                <mxCell id="25" value="每段的实际内容&lt;div&gt;&lt;span style=&quot;background-color: transparent;&quot;&gt;&lt;font color=&quot;#000000&quot;&gt;list[&lt;/font&gt;&lt;/span&gt;&lt;span style=&quot;color: rgb(63, 63, 63); background-color: transparent;&quot;&gt;bytes]&lt;/span&gt;&lt;/div&gt;" style="rounded=0;whiteSpace=wrap;html=1;" parent="1" vertex="1">
                    <mxGeometry x="950" y="340" width="120" height="60" as="geometry"/>
                </mxCell>
                <mxCell id="35" style="edgeStyle=none;html=1;strokeColor=default;dashed=1;" parent="1" source="27" target="33" edge="1">
                    <mxGeometry relative="1" as="geometry"/>
                </mxCell>
                <mxCell id="27" value="GPT-2的识别模式&lt;div&gt;PAT:str&lt;/div&gt;" style="rounded=0;whiteSpace=wrap;html=1;fillColor=#fff2cc;strokeColor=#d6b656;" parent="1" vertex="1">
                    <mxGeometry x="738.25" y="500" width="120" height="60" as="geometry"/>
                </mxCell>
                <mxCell id="37" style="edgeStyle=none;html=1;" parent="1" source="33" target="36" edge="1">
                    <mxGeometry relative="1" as="geometry"/>
                </mxCell>
                <UserObject label="去掉特殊词元，预分词&lt;div&gt;（模式匹配）&lt;/div&gt;&lt;div&gt;&lt;div style=&quot;color: rgb(59, 59, 59); background-color: rgb(255, 255, 255); font-family: Consolas, &amp;quot;Courier New&amp;quot;, monospace; font-size: 14px; line-height: 19px; white-space: pre;&quot;&gt;&lt;span style=&quot;color: rgb(121, 94, 38);&quot;&gt;pre_tokenization_for_chunk&lt;/span&gt;&lt;/div&gt;&lt;/div&gt;" link="data:page/id,_x8nLHJjuNLrxOSk0CRX" id="33">
                    <mxCell style="shape=parallelogram;perimeter=parallelogramPerimeter;whiteSpace=wrap;html=1;fixedSize=1;fillColor=#dae8fc;strokeColor=#6c8ebf;" parent="1" vertex="1">
                        <mxGeometry x="930" y="580" width="160" height="60" as="geometry"/>
                    </mxCell>
                </UserObject>
                <mxCell id="50" style="edgeStyle=none;html=1;" parent="1" source="36" target="48" edge="1">
                    <mxGeometry relative="1" as="geometry"/>
                </mxCell>
                <mxCell id="36" value="单段的pre-token列表&lt;div&gt;&lt;div&gt;list[str]&lt;/div&gt;&lt;/div&gt;" style="rounded=0;whiteSpace=wrap;html=1;" parent="1" vertex="1">
                    <mxGeometry x="950" y="660" width="120" height="60" as="geometry"/>
                </mxCell>
                <mxCell id="-oTKJ_Lwxb_Tc46xKrAl-47" style="edgeStyle=none;html=1;" parent="1" source="-oTKJ_Lwxb_Tc46xKrAl-38" target="-oTKJ_Lwxb_Tc46xKrAl-45" edge="1">
                    <mxGeometry relative="1" as="geometry"/>
                </mxCell>
                <mxCell id="-oTKJ_Lwxb_Tc46xKrAl-48" style="edgeStyle=none;html=1;" parent="1" source="-oTKJ_Lwxb_Tc46xKrAl-38" target="-oTKJ_Lwxb_Tc46xKrAl-46" edge="1">
                    <mxGeometry relative="1" as="geometry"/>
                </mxCell>
                <UserObject label="BPE流程" link="data:page/id,_OFI2wqxZuWavmVBi_qw" id="-oTKJ_Lwxb_Tc46xKrAl-38">
                    <mxCell style="shape=parallelogram;perimeter=parallelogramPerimeter;whiteSpace=wrap;html=1;fixedSize=1;fillColor=#f8cecc;strokeColor=#b85450;" parent="1" vertex="1">
                        <mxGeometry x="1018.25" y="1470" width="120" height="60" as="geometry"/>
                    </mxCell>
                </UserObject>
                <mxCell id="-oTKJ_Lwxb_Tc46xKrAl-42" style="edgeStyle=none;html=1;dashed=1;" parent="1" source="-oTKJ_Lwxb_Tc46xKrAl-41" target="-oTKJ_Lwxb_Tc46xKrAl-38" edge="1">
                    <mxGeometry relative="1" as="geometry"/>
                </mxCell>
                <mxCell id="-oTKJ_Lwxb_Tc46xKrAl-41" value="初始化词表&lt;div&gt;256种不同的字节dict[int,&lt;span style=&quot;color: rgb(63, 63, 63); background-color: transparent;&quot;&gt;bytes]&lt;/span&gt;&lt;/div&gt;" style="shape=label;whiteSpace=wrap;html=1;fixedSize=1;fillColor=#fff2cc;strokeColor=#d6b656;rounded=0;" parent="1" vertex="1">
                    <mxGeometry x="858.25" y="1470" width="120" height="60" as="geometry"/>
                </mxCell>
                <mxCell id="-oTKJ_Lwxb_Tc46xKrAl-44" style="edgeStyle=none;html=1;dashed=1;" parent="1" source="-oTKJ_Lwxb_Tc46xKrAl-43" target="-oTKJ_Lwxb_Tc46xKrAl-38" edge="1">
                    <mxGeometry relative="1" as="geometry"/>
                </mxCell>
                <mxCell id="-oTKJ_Lwxb_Tc46xKrAl-43" value="初始化merge列表&lt;div&gt;空列表&lt;/div&gt;&lt;div&gt;list[tuple[bytes,bytes]]&lt;/div&gt;" style="rounded=0;whiteSpace=wrap;html=1;fillColor=#fff2cc;strokeColor=#d6b656;" parent="1" vertex="1">
                    <mxGeometry x="858.25" y="1550" width="120" height="60" as="geometry"/>
                </mxCell>
                <mxCell id="-oTKJ_Lwxb_Tc46xKrAl-45" value="最终词表" style="rounded=0;whiteSpace=wrap;html=1;" parent="1" vertex="1">
                    <mxGeometry x="1189.25" y="1490" width="120" height="60" as="geometry"/>
                </mxCell>
                <mxCell id="-oTKJ_Lwxb_Tc46xKrAl-46" value="最终merge列表" style="rounded=0;whiteSpace=wrap;html=1;" parent="1" vertex="1">
                    <mxGeometry x="1189.25" y="1570" width="120" height="60" as="geometry"/>
                </mxCell>
                <mxCell id="B9kwqg0V0t1540W7pURO-39" style="edgeStyle=none;html=1;" parent="1" source="B9kwqg0V0t1540W7pURO-37" target="B9kwqg0V0t1540W7pURO-38" edge="1">
                    <mxGeometry relative="1" as="geometry"/>
                </mxCell>
                <mxCell id="B9kwqg0V0t1540W7pURO-37" value="合并，且转为bytes&lt;div&gt;&lt;div style=&quot;color: rgb(59, 59, 59); background-color: rgb(255, 255, 255); font-family: Consolas, &amp;quot;Courier New&amp;quot;, monospace; font-size: 14px; line-height: 19px; white-space: pre;&quot;&gt;&lt;span style=&quot;color: #795e26;&quot;&gt;get_all_pretoken_bytes&lt;/span&gt;&lt;/div&gt;&lt;/div&gt;" style="shape=parallelogram;perimeter=parallelogramPerimeter;whiteSpace=wrap;html=1;fixedSize=1;fillColor=#dae8fc;strokeColor=#6c8ebf;" parent="1" vertex="1">
                    <mxGeometry x="950" y="880" width="120" height="60" as="geometry"/>
                </mxCell>
                <mxCell id="B9kwqg0V0t1540W7pURO-40" style="edgeStyle=none;html=1;" parent="1" target="-oTKJ_Lwxb_Tc46xKrAl-38" edge="1">
                    <mxGeometry relative="1" as="geometry">
                        <mxPoint x="1024.4038461538462" y="1400" as="sourcePoint"/>
                    </mxGeometry>
                </mxCell>
                <mxCell id="57" value="" style="edgeStyle=none;html=1;" parent="1" source="B9kwqg0V0t1540W7pURO-38" target="56" edge="1">
                    <mxGeometry relative="1" as="geometry"/>
                </mxCell>
                <mxCell id="B9kwqg0V0t1540W7pURO-38" value="全部pre-token列表&lt;div&gt;&lt;font color=&quot;#000000&quot;&gt;每个pre-token标记次数&lt;br&gt;&lt;/font&gt;&lt;div&gt;dict[bytes,int]&lt;/div&gt;&lt;/div&gt;" style="rounded=0;whiteSpace=wrap;html=1;" parent="1" vertex="1">
                    <mxGeometry x="940" y="960" width="140" height="60" as="geometry"/>
                </mxCell>
                <mxCell id="39" style="edgeStyle=none;html=1;" parent="1" source="38" target="5" edge="1">
                    <mxGeometry relative="1" as="geometry"/>
                </mxCell>
                <mxCell id="38" value="&lt;div&gt;并行份数&lt;/div&gt;n_parallel:int" style="rounded=0;whiteSpace=wrap;html=1;fillColor=#fff2cc;strokeColor=#d6b656;" parent="1" vertex="1">
                    <mxGeometry x="1034" y="170" width="120" height="60" as="geometry"/>
                </mxCell>
                <mxCell id="46" style="edgeStyle=none;html=1;" parent="1" source="43" target="44" edge="1">
                    <mxGeometry relative="1" as="geometry"/>
                </mxCell>
                <mxCell id="49" style="edgeStyle=none;html=1;rounded=0;curved=0;" parent="1" source="43" target="48" edge="1">
                    <mxGeometry relative="1" as="geometry">
                        <Array as="points">
                            <mxPoint x="1160" y="440"/>
                            <mxPoint x="1160" y="760"/>
                        </Array>
                    </mxGeometry>
                </mxCell>
                <mxCell id="43" value="用循环处理每个bytes" style="shape=parallelogram;perimeter=parallelogramPerimeter;whiteSpace=wrap;html=1;fixedSize=1;fillColor=#fff2cc;strokeColor=#d6b656;" parent="1" vertex="1">
                    <mxGeometry x="950" y="410" width="120" height="60" as="geometry"/>
                </mxCell>
                <mxCell id="47" style="edgeStyle=none;html=1;" parent="1" source="44" target="33" edge="1">
                    <mxGeometry relative="1" as="geometry"/>
                </mxCell>
                <mxCell id="44" value="单段的实际内容&lt;div&gt;bytes&lt;/div&gt;" style="rounded=0;whiteSpace=wrap;html=1;" parent="1" vertex="1">
                    <mxGeometry x="950" y="490" width="120" height="60" as="geometry"/>
                </mxCell>
                <mxCell id="54" style="edgeStyle=none;html=1;" parent="1" source="48" target="51" edge="1">
                    <mxGeometry relative="1" as="geometry"/>
                </mxCell>
                <mxCell id="48" value="合并循环" style="shape=parallelogram;perimeter=parallelogramPerimeter;whiteSpace=wrap;html=1;fixedSize=1;fillColor=#fff2cc;strokeColor=#d6b656;" parent="1" vertex="1">
                    <mxGeometry x="950" y="730" width="120" height="60" as="geometry"/>
                </mxCell>
                <mxCell id="55" style="edgeStyle=none;html=1;" parent="1" source="51" target="B9kwqg0V0t1540W7pURO-37" edge="1">
                    <mxGeometry relative="1" as="geometry"/>
                </mxCell>
                <mxCell id="51" value="所有的pre-token列表&lt;div&gt;list[list[str]]&lt;/div&gt;" style="rounded=0;whiteSpace=wrap;html=1;" parent="1" vertex="1">
                    <mxGeometry x="950" y="810" width="120" height="60" as="geometry"/>
                </mxCell>
                <mxCell id="59" style="edgeStyle=none;html=1;" parent="1" source="56" target="58" edge="1">
                    <mxGeometry relative="1" as="geometry"/>
                </mxCell>
                <mxCell id="56" value="bytes打碎成整数列&lt;div&gt;（注意此时没有特殊词元，所有文本字节都彼此独立）&lt;/div&gt;" style="whiteSpace=wrap;html=1;rounded=0;shape=parallelogram;perimeter=parallelogramPerimeter;fixedSize=1;fillColor=#fff2cc;strokeColor=#d6b656;" parent="1" vertex="1">
                    <mxGeometry x="858.25" y="1040" width="305" height="60" as="geometry"/>
                </mxCell>
                <mxCell id="61" value="" style="edgeStyle=none;html=1;" parent="1" source="58" target="60" edge="1">
                    <mxGeometry relative="1" as="geometry"/>
                </mxCell>
                <mxCell id="58" value="全部pre-token列表（字节整数值版）&lt;div&gt;&lt;font color=&quot;#000000&quot;&gt;每个pre-token标记次数&lt;br&gt;&lt;/font&gt;&lt;div&gt;dict[tuple[int,...],int]&lt;/div&gt;&lt;/div&gt;" style="rounded=0;whiteSpace=wrap;html=1;" parent="1" vertex="1">
                    <mxGeometry x="910.19" y="1120" width="199.63" height="60" as="geometry"/>
                </mxCell>
                <mxCell id="63" value="" style="edgeStyle=none;html=1;" parent="1" source="60" target="62" edge="1">
                    <mxGeometry relative="1" as="geometry"/>
                </mxCell>
                <mxCell id="60" value="建立反向索引" style="shape=parallelogram;perimeter=parallelogramPerimeter;whiteSpace=wrap;html=1;fixedSize=1;rounded=0;fillColor=#f8cecc;strokeColor=#b85450;" parent="1" vertex="1">
                    <mxGeometry x="950.7450000000001" y="1200" width="120" height="60" as="geometry"/>
                </mxCell>
                <mxCell id="62" value="记录当前每个字节对都出现在哪些pre-token里（不记录位置，基本遍历的起）&lt;div&gt;dict[tuple[int,int],list[tuple[int,...],int]]&lt;/div&gt;" style="whiteSpace=wrap;html=1;fillColor=#f8cecc;strokeColor=#b85450;rounded=0;" parent="1" vertex="1">
                    <mxGeometry x="896.12" y="1270" width="229.25" height="60" as="geometry"/>
                </mxCell>
            </root>
        </mxGraphModel>
    </diagram>
    <diagram id="_x8nLHJjuNLrxOSk0CRX" name="预分词">
        <mxGraphModel dx="590" dy="614" grid="1" gridSize="10" guides="1" tooltips="1" connect="1" arrows="1" fold="1" page="1" pageScale="1" pageWidth="827" pageHeight="1169" math="0" shadow="0">
            <root>
                <mxCell id="0"/>
                <mxCell id="1" parent="0"/>
                <mxCell id="rMiVW3GxYk81K_RAMO6e-13" style="edgeStyle=none;html=1;" parent="1" source="rMiVW3GxYk81K_RAMO6e-2" target="rMiVW3GxYk81K_RAMO6e-12" edge="1">
                    <mxGeometry relative="1" as="geometry">
                        <mxPoint x="310" y="622" as="targetPoint"/>
                    </mxGeometry>
                </mxCell>
                <mxCell id="rMiVW3GxYk81K_RAMO6e-2" value="预分词的文本片段&lt;div&gt;str&lt;/div&gt;" style="rounded=0;whiteSpace=wrap;html=1;fillColor=#d5e8d4;strokeColor=#82b366;" parent="1" vertex="1">
                    <mxGeometry x="110" y="480" width="120" height="60" as="geometry"/>
                </mxCell>
                <mxCell id="rMiVW3GxYk81K_RAMO6e-5" style="edgeStyle=none;html=1;" parent="1" source="rMiVW3GxYk81K_RAMO6e-3" target="rMiVW3GxYk81K_RAMO6e-4" edge="1">
                    <mxGeometry relative="1" as="geometry"/>
                </mxCell>
                <mxCell id="rMiVW3GxYk81K_RAMO6e-3" value="特殊词元&lt;div&gt;special_tokens:list[str]&lt;/div&gt;" style="rounded=0;whiteSpace=wrap;html=1;fillColor=#d5e8d4;strokeColor=#82b366;" parent="1" vertex="1">
                    <mxGeometry x="300" y="140" width="120" height="60" as="geometry"/>
                </mxCell>
                <mxCell id="rMiVW3GxYk81K_RAMO6e-7" style="edgeStyle=none;html=1;" parent="1" source="rMiVW3GxYk81K_RAMO6e-4" target="rMiVW3GxYk81K_RAMO6e-6" edge="1">
                    <mxGeometry relative="1" as="geometry"/>
                </mxCell>
                <mxCell id="rMiVW3GxYk81K_RAMO6e-4" value="&lt;div&gt;处理|等干扰字符&lt;/div&gt;re.escape()" style="shape=parallelogram;perimeter=parallelogramPerimeter;whiteSpace=wrap;html=1;fixedSize=1;fillColor=#dae8fc;strokeColor=#6c8ebf;" parent="1" vertex="1">
                    <mxGeometry x="300" y="220" width="120" height="60" as="geometry"/>
                </mxCell>
                <mxCell id="rMiVW3GxYk81K_RAMO6e-9" style="edgeStyle=none;html=1;" parent="1" source="rMiVW3GxYk81K_RAMO6e-6" target="rMiVW3GxYk81K_RAMO6e-8" edge="1">
                    <mxGeometry relative="1" as="geometry"/>
                </mxCell>
                <mxCell id="rMiVW3GxYk81K_RAMO6e-6" value="带转义符号的特殊词元&lt;div&gt;list[str]&lt;/div&gt;" style="rounded=0;whiteSpace=wrap;html=1;" parent="1" vertex="1">
                    <mxGeometry x="290" y="310" width="140" height="60" as="geometry"/>
                </mxCell>
                <mxCell id="rMiVW3GxYk81K_RAMO6e-11" style="edgeStyle=none;html=1;" parent="1" source="rMiVW3GxYk81K_RAMO6e-8" target="rMiVW3GxYk81K_RAMO6e-10" edge="1">
                    <mxGeometry relative="1" as="geometry"/>
                </mxCell>
                <mxCell id="rMiVW3GxYk81K_RAMO6e-8" value="用|连成正则表达式&lt;div&gt;用来让re.split匹配&lt;/div&gt;" style="shape=parallelogram;perimeter=parallelogramPerimeter;whiteSpace=wrap;html=1;fixedSize=1;fillColor=#dae8fc;strokeColor=#6c8ebf;" parent="1" vertex="1">
                    <mxGeometry x="300" y="400" width="120" height="60" as="geometry"/>
                </mxCell>
                <mxCell id="rMiVW3GxYk81K_RAMO6e-14" style="edgeStyle=none;html=1;" parent="1" source="rMiVW3GxYk81K_RAMO6e-10" target="rMiVW3GxYk81K_RAMO6e-12" edge="1">
                    <mxGeometry relative="1" as="geometry"/>
                </mxCell>
                <mxCell id="rMiVW3GxYk81K_RAMO6e-10" value="特殊词元连接而成的正则&lt;div&gt;str&lt;/div&gt;" style="rounded=0;whiteSpace=wrap;html=1;" parent="1" vertex="1">
                    <mxGeometry x="285" y="480" width="150" height="60" as="geometry"/>
                </mxCell>
                <mxCell id="rMiVW3GxYk81K_RAMO6e-16" style="edgeStyle=none;html=1;" parent="1" source="rMiVW3GxYk81K_RAMO6e-12" target="rMiVW3GxYk81K_RAMO6e-15" edge="1">
                    <mxGeometry relative="1" as="geometry"/>
                </mxCell>
                <mxCell id="rMiVW3GxYk81K_RAMO6e-12" value="re.split()" style="shape=parallelogram;perimeter=parallelogramPerimeter;whiteSpace=wrap;html=1;fixedSize=1;fillColor=#dae8fc;strokeColor=#6c8ebf;" parent="1" vertex="1">
                    <mxGeometry x="210" y="580" width="120" height="60" as="geometry"/>
                </mxCell>
                <mxCell id="rMiVW3GxYk81K_RAMO6e-15" value="分割出的片段&lt;div&gt;list[str]&lt;/div&gt;" style="rounded=0;whiteSpace=wrap;html=1;" parent="1" vertex="1">
                    <mxGeometry x="210" y="680" width="120" height="60" as="geometry"/>
                </mxCell>
            </root>
        </mxGraphModel>
    </diagram>
    <diagram id="_OFI2wqxZuWavmVBi_qw" name="bpe核心流程">
        <mxGraphModel dx="572" dy="614" grid="1" gridSize="10" guides="1" tooltips="1" connect="1" arrows="1" fold="1" page="1" pageScale="1" pageWidth="827" pageHeight="1169" math="0" shadow="0">
            <root>
                <mxCell id="0"/>
                <mxCell id="1" parent="0"/>
                <mxCell id="-6XXixKf4lE6W-V20lfz-38" style="edgeStyle=none;html=1;" parent="1" source="LP67HsO6o8TVi5aNv_2d-2" target="-6XXixKf4lE6W-V20lfz-35" edge="1">
                    <mxGeometry relative="1" as="geometry"/>
                </mxCell>
                <mxCell id="LP67HsO6o8TVi5aNv_2d-2" value="词表大小&lt;div&gt;vocab_size:int&lt;/div&gt;" style="rounded=0;whiteSpace=wrap;html=1;fillColor=#d5e8d4;strokeColor=#82b366;" parent="1" vertex="1">
                    <mxGeometry x="1030" y="980" width="90" height="60" as="geometry"/>
                </mxCell>
                <mxCell id="-6XXixKf4lE6W-V20lfz-46" style="edgeStyle=none;html=1;" parent="1" source="LP67HsO6o8TVi5aNv_2d-4" target="-6XXixKf4lE6W-V20lfz-45" edge="1">
                    <mxGeometry relative="1" as="geometry"/>
                </mxCell>
                <mxCell id="LP67HsO6o8TVi5aNv_2d-4" value="每段的pre-token列表&lt;div&gt;&lt;div&gt;list[bytes]&lt;/div&gt;&lt;/div&gt;" style="whiteSpace=wrap;html=1;fillColor=#d5e8d4;strokeColor=#82b366;rounded=0;" parent="1" vertex="1">
                    <mxGeometry x="860" y="450" width="120" height="60" as="geometry"/>
                </mxCell>
                <mxCell id="-6XXixKf4lE6W-V20lfz-39" style="edgeStyle=none;html=1;" parent="1" source="LP67HsO6o8TVi5aNv_2d-9" target="-6XXixKf4lE6W-V20lfz-35" edge="1">
                    <mxGeometry relative="1" as="geometry"/>
                </mxCell>
                <mxCell id="LP67HsO6o8TVi5aNv_2d-9" value="初始词表&lt;div&gt;&lt;font color=&quot;#000000&quot;&gt;0-255序号对应0-255字节值&lt;br&gt;&lt;/font&gt;&lt;div&gt;&lt;span style=&quot;color: rgb(63, 63, 63); background-color: transparent;&quot;&gt;dict[int,&lt;/span&gt;&lt;span style=&quot;background-color: transparent; color: rgb(63, 63, 63);&quot;&gt;bytes]&lt;/span&gt;&lt;/div&gt;&lt;/div&gt;" style="shape=label;whiteSpace=wrap;html=1;fixedSize=1;fillColor=#fff2cc;strokeColor=#d6b656;rounded=0;" parent="1" vertex="1">
                    <mxGeometry x="1170" y="980" width="120" height="60" as="geometry"/>
                </mxCell>
                <mxCell id="-6XXixKf4lE6W-V20lfz-40" style="edgeStyle=none;html=1;" parent="1" source="LP67HsO6o8TVi5aNv_2d-11" target="-6XXixKf4lE6W-V20lfz-35" edge="1">
                    <mxGeometry relative="1" as="geometry"/>
                </mxCell>
                <mxCell id="LP67HsO6o8TVi5aNv_2d-11" value="初始merge列表&lt;div&gt;list[tuple[bytes,bytes]]&lt;/div&gt;" style="rounded=0;whiteSpace=wrap;html=1;fillColor=#fff2cc;strokeColor=#d6b656;" parent="1" vertex="1">
                    <mxGeometry x="1430" y="1140" width="120" height="60" as="geometry"/>
                </mxCell>
                <mxCell id="LP67HsO6o8TVi5aNv_2d-12" value="最终词表" style="rounded=0;whiteSpace=wrap;html=1;" parent="1" vertex="1">
                    <mxGeometry x="1000" y="1660" width="120" height="60" as="geometry"/>
                </mxCell>
                <mxCell id="LP67HsO6o8TVi5aNv_2d-13" value="最终merge列表" style="rounded=0;whiteSpace=wrap;html=1;" parent="1" vertex="1">
                    <mxGeometry x="1000" y="1740" width="120" height="60" as="geometry"/>
                </mxCell>
                <mxCell id="-6XXixKf4lE6W-V20lfz-17" value="" style="edgeStyle=none;html=1;" parent="1" source="-6XXixKf4lE6W-V20lfz-14" target="-6XXixKf4lE6W-V20lfz-16" edge="1">
                    <mxGeometry relative="1" as="geometry"/>
                </mxCell>
                <mxCell id="-6XXixKf4lE6W-V20lfz-14" value="读所有字节对&lt;div&gt;&lt;div style=&quot;color: rgb(59, 59, 59); background-color: rgb(255, 255, 255); font-family: Consolas, &amp;quot;Courier New&amp;quot;, monospace; font-size: 14px; line-height: 19px; white-space: pre;&quot;&gt;&lt;span style=&quot;color: #795e26;&quot;&gt;create_token_pair_dict_int&lt;/span&gt;&lt;/div&gt;&lt;/div&gt;" style="shape=parallelogram;perimeter=parallelogramPerimeter;whiteSpace=wrap;html=1;fixedSize=1;fillColor=#dae8fc;strokeColor=#6c8ebf;" parent="1" vertex="1">
                    <mxGeometry x="860" y="700" width="120" height="60" as="geometry"/>
                </mxCell>
                <mxCell id="-6XXixKf4lE6W-V20lfz-25" value="" style="edgeStyle=none;html=1;" parent="1" source="-6XXixKf4lE6W-V20lfz-16" target="-6XXixKf4lE6W-V20lfz-24" edge="1">
                    <mxGeometry relative="1" as="geometry"/>
                </mxCell>
                <mxCell id="-6XXixKf4lE6W-V20lfz-16" value="记录每个字节对的所有出现位置&lt;div&gt;dict[tuple[int,int],list[tuple[int,int]]]&lt;/div&gt;&lt;div&gt;key：两个字节的序号&lt;/div&gt;&lt;div&gt;value：一列（pretoken序号，内部位置）整数对&lt;/div&gt;" style="whiteSpace=wrap;html=1;" parent="1" vertex="1">
                    <mxGeometry x="787.5" y="780" width="265" height="80" as="geometry"/>
                </mxCell>
                <mxCell id="-6XXixKf4lE6W-V20lfz-28" value="" style="group" parent="1" vertex="1" connectable="0">
                    <mxGeometry x="860" y="890" width="240" height="60" as="geometry"/>
                </mxCell>
                <mxCell id="-6XXixKf4lE6W-V20lfz-24" value="进一步处理&lt;div&gt;建立完整的索引&lt;/div&gt;" style="shape=parallelogram;perimeter=parallelogramPerimeter;whiteSpace=wrap;html=1;fixedSize=1;" parent="-6XXixKf4lE6W-V20lfz-28" vertex="1">
                    <mxGeometry width="120" height="60" as="geometry"/>
                </mxCell>
                <mxCell id="-6XXixKf4lE6W-V20lfz-26" value="索引应当满足的要求：&lt;div&gt;-输入tokenid, 能查到其作为左/右token所在的所有token pair&lt;/div&gt;&lt;div&gt;-能根据左右两个给定tokenid创建新token对&lt;/div&gt;&lt;div&gt;-能根据tokenid正确删除token对&lt;/div&gt;" style="text;html=1;align=left;verticalAlign=top;rounded=0;horizontal=1;" parent="-6XXixKf4lE6W-V20lfz-28" vertex="1">
                    <mxGeometry x="125" width="115" height="40" as="geometry"/>
                </mxCell>
                <mxCell id="-6XXixKf4lE6W-V20lfz-37" style="edgeStyle=none;html=1;" parent="1" source="-6XXixKf4lE6W-V20lfz-29" target="-6XXixKf4lE6W-V20lfz-35" edge="1">
                    <mxGeometry relative="1" as="geometry"/>
                </mxCell>
                <mxCell id="-6XXixKf4lE6W-V20lfz-29" value="完整的索引&lt;div&gt;tokenindex（？）&lt;/div&gt;" style="whiteSpace=wrap;html=1;" parent="1" vertex="1">
                    <mxGeometry x="860" y="980" width="120" height="60" as="geometry"/>
                </mxCell>
                <mxCell id="-6XXixKf4lE6W-V20lfz-30" value="" style="edgeStyle=none;html=1;" parent="1" source="-6XXixKf4lE6W-V20lfz-24" target="-6XXixKf4lE6W-V20lfz-29" edge="1">
                    <mxGeometry relative="1" as="geometry"/>
                </mxCell>
                <mxCell id="-6XXixKf4lE6W-V20lfz-35" value="&lt;div&gt;合并特殊词表和初始词表&lt;/div&gt;&lt;div&gt;&lt;br&gt;&lt;/div&gt;&lt;div&gt;词表长度&amp;lt;词表大小则进入循环&lt;/div&gt;&lt;div&gt;&lt;br&gt;&lt;/div&gt;&lt;div&gt;找到出现位置最多的&lt;span style=&quot;color: rgb(63, 63, 63); background-color: transparent;&quot;&gt;tokenpair(t1,t2)&lt;/span&gt;&lt;/div&gt;&lt;div&gt;创建t3为t1和t2的连接 分配新序号 加入到词表里 并把这一合并记录到merge列表中&lt;/div&gt;&lt;div&gt;&lt;br&gt;&lt;/div&gt;&lt;div&gt;找到(t1,t2)在数据中的位置 list[tuple[int,int]]&lt;/div&gt;&lt;div&gt;&lt;br&gt;&lt;/div&gt;&lt;div&gt;取出将所有pre-token写成token序号序列的那个东西，即本图中的紫色方块&lt;/div&gt;&lt;div&gt;对于每个位置tuple[int,int]，找到原数据中左右两边的token，设为t4和t5&lt;/div&gt;&lt;div&gt;删掉(t4,t1)对应位置的记录，添加(t4,t3)的对应记录&lt;/div&gt;&lt;div&gt;删掉(t2,t5)的记录，添加(t3,t5)的记录&lt;/div&gt;&lt;div&gt;&lt;br&gt;&lt;/div&gt;&lt;div&gt;循环结束&lt;/div&gt;" style="shape=process;whiteSpace=wrap;html=1;backgroundOutline=1;size=0.02040816326530612;align=left;verticalAlign=top;" parent="1" vertex="1">
                    <mxGeometry x="920" y="1070" width="460" height="200" as="geometry"/>
                </mxCell>
                <mxCell id="-6XXixKf4lE6W-V20lfz-48" style="edgeStyle=none;html=1;" parent="1" source="-6XXixKf4lE6W-V20lfz-45" target="-6XXixKf4lE6W-V20lfz-47" edge="1">
                    <mxGeometry relative="1" as="geometry"/>
                </mxCell>
                <mxCell id="-6XXixKf4lE6W-V20lfz-45" value="字节直接转为数字&lt;div&gt;直接调用list即可！&lt;/div&gt;" style="shape=parallelogram;perimeter=parallelogramPerimeter;whiteSpace=wrap;html=1;fixedSize=1;fillColor=#dae8fc;strokeColor=#6c8ebf;" parent="1" vertex="1">
                    <mxGeometry x="860" y="525" width="120" height="60" as="geometry"/>
                </mxCell>
                <mxCell id="-6XXixKf4lE6W-V20lfz-49" style="edgeStyle=none;html=1;" parent="1" source="-6XXixKf4lE6W-V20lfz-47" target="-6XXixKf4lE6W-V20lfz-14" edge="1">
                    <mxGeometry relative="1" as="geometry"/>
                </mxCell>
                <mxCell id="-6XXixKf4lE6W-V20lfz-47" value="每个pre-token内部字节token的序号&lt;div&gt;list[list[int]]&lt;/div&gt;" style="rounded=0;whiteSpace=wrap;html=1;fillColor=#e1d5e7;strokeColor=#9673a6;" parent="1" vertex="1">
                    <mxGeometry x="860" y="610" width="120" height="60" as="geometry"/>
                </mxCell>
                <mxCell id="8mX1xu5jXllFjTXJwBUr-1" style="edgeStyle=none;html=1;" edge="1" parent="1" source="Fs23jj995rzJSJqFzmY2-1" target="-6XXixKf4lE6W-V20lfz-35">
                    <mxGeometry relative="1" as="geometry"/>
                </mxCell>
                <mxCell id="Fs23jj995rzJSJqFzmY2-1" value="&lt;div&gt;特殊词元列表&lt;/div&gt;special_tokens: list[str]" style="shape=label;whiteSpace=wrap;html=1;fixedSize=1;rounded=0;fillColor=#d5e8d4;strokeColor=#82b366;" vertex="1" parent="1">
                    <mxGeometry x="1330" y="980" width="140" height="60" as="geometry"/>
                </mxCell>
            </root>
        </mxGraphModel>
    </diagram>
    <diagram id="0QVHRDpucLgk_zg3-g_Z" name="transformer">
        <mxGraphModel dx="657" dy="333" grid="1" gridSize="10" guides="1" tooltips="1" connect="1" arrows="1" fold="1" page="1" pageScale="1" pageWidth="827" pageHeight="1169" math="0" shadow="0">
            <root>
                <mxCell id="0"/>
                <mxCell id="1" parent="0"/>
            </root>
        </mxGraphModel>
    </diagram>
</mxfile>